<?xml version="1.0" standalone="no"?>
<!DOCTYPE svg PUBLIC "-//W3C//DTD SVG 20010904//EN"
 "http://www.w3.org/TR/2001/REC-SVG-20010904/DTD/svg10.dtd">
<svg version="1.0" xmlns="http://www.w3.org/2000/svg"
 width="450.000000pt" height="450.000000pt" viewBox="0 0 450.000000 450.000000"
 preserveAspectRatio="xMidYMid meet">
<metadata>
Created by potrace 1.11, written by Peter Selinger 2001-2013
</metadata>
<g transform="translate(0.000000,450.000000) scale(0.100000,-0.100000)"
fill="#000000" stroke="none">
<path d="M2070 4475 c-8 -2 -62 -9 -120 -15 -268 -30 -592 -143 -842 -293
-579 -347 -969 -931 -1068 -1602 -22 -148 -25 -430 -5 -588 136 -1115 1084
-1956 2207 -1957 417 0 788 100 1143 309 576 339 966 914 1071 1581 26 159 26
519 1 675 -60 371 -202 708 -424 1008 -90 120 -304 337 -420 425 -301 228
-652 378 -1019 437 -89 15 -485 30 -524 20z m-190 -90 c-381 -76 -707 -229
-1009 -476 -53 -43 -97 -76 -99 -75 -24 24 217 212 413 322 219 124 461 210
670 239 140 20 151 15 25 -10z m274 -67 c14 -20 16 -85 16 -510 0 -408 -2
-489 -14 -501 -8 -8 -43 -19 -78 -26 -429 -81 -763 -406 -848 -826 -18 -87
-29 -112 -53 -119 -35 -9 -284 -7 -647 5 -285 10 -338 14 -352 28 -15 14 -16
26 -8 106 55 530 324 1037 728 1376 298 249 674 418 1052 473 147 21 186 20
204 -6z m1940 -923 c126 -181 231 -413 285 -630 87 -348 80 -740 -19 -1097
-56 -203 -151 -419 -167 -381 -3 8 -14 11 -30 7 -23 -6 -25 -5 -18 17 4 13 13
35 20 49 18 36 79 194 104 270 28 88 67 274 82 393 11 95 11 100 -10 127 -29
40 -29 127 1 187 21 42 21 47 9 151 -19 159 -63 347 -133 567 -40 125 -149
358 -201 428 -13 18 -27 39 -31 47 -14 29 45 -45 108 -135z m-3646 88 c-47
-53 -160 -267 -217 -410 -109 -275 -151 -507 -151 -841 -1 -139 -4 -192 -11
-179 -13 23 -13 336 1 457 27 233 112 515 221 732 48 96 114 205 142 236 24
26 38 30 15 5z m1270 -919 c17 -12 22 -25 22 -60 l0 -44 -55 0 c-54 0 -55 0
-55 30 0 23 -5 31 -25 36 -14 3 -36 3 -50 0 -20 -5 -25 -13 -25 -39 0 -49 14
-57 101 -57 98 0 109 -9 109 -90 0 -84 -12 -90 -163 -90 -65 0 -127 5 -138 10
-15 8 -19 22 -19 60 l0 50 54 0 c54 0 55 0 58 -32 3 -32 5 -33 48 -33 l45 0 0
40 0 40 -87 5 c-107 6 -117 14 -119 94 -3 88 11 96 160 96 89 0 122 -4 139
-16z m162 -149 l0 -165 -60 0 -60 0 0 158 c0 87 3 162 7 165 3 4 30 7 60 7
l53 0 0 -165z m135 155 c5 -8 11 -7 21 1 9 7 37 9 86 5 40 -3 82 -6 93 -5 11
1 55 2 98 3 107 2 107 1 107 -181 l0 -143 -60 0 -59 0 -3 138 -3 137 -35 0
-35 0 -3 -137 -3 -138 -54 0 -55 0 0 129 c0 138 -6 156 -52 149 -23 -3 -23 -5
-26 -140 l-3 -138 -59 0 -60 0 0 165 0 165 49 0 c28 0 53 -5 56 -10z m724 -16
c18 -23 21 -41 21 -136 0 -104 -8 -143 -34 -160 -6 -4 -63 -8 -127 -8 -157 0
-153 -4 -157 152 -3 114 -2 125 18 151 21 27 23 27 140 27 116 0 119 -1 139
-26z m141 16 c0 -7 6 -7 19 0 33 17 136 12 159 -7 25 -22 25 -17 23 -180 l-1
-133 -55 0 -54 0 -3 138 -3 137 -28 3 c-52 6 -57 -8 -57 -150 l0 -129 -52 3
-53 3 -3 150 c-1 82 0 155 2 162 6 16 106 18 106 3z m252 -312 c-15 -15 -26
-4 -18 18 5 13 9 15 18 6 9 -9 9 -15 0 -24z m-1926 -118 c7 -14 24 -73 37
-131 92 -394 419 -706 817 -779 36 -7 75 -19 88 -26 l22 -14 0 -499 c0 -474
-1 -499 -19 -515 -17 -16 -27 -16 -146 -1 -425 52 -804 218 -1125 494 -250
214 -448 490 -576 802 -72 176 -144 486 -144 621 0 83 -34 79 533 76 l501 -3
12 -25z m2699 20 l-60 -7 80 -3 80 -4 -90 -6 c-55 -4 -71 -7 -42 -8 48 -2 65
-18 25 -24 -21 -3 -23 -9 -26 -85 -3 -79 -4 -83 -26 -83 -22 0 -23 -2 -15 -51
8 -48 6 -53 -16 -71 -21 -16 -25 -28 -25 -69 0 -42 -3 -49 -20 -49 -14 0 -22
-11 -31 -40 -7 -22 -16 -40 -21 -40 -4 0 -8 -18 -8 -40 0 -22 -4 -40 -10 -40
-5 0 -10 -7 -10 -15 0 -8 -6 -15 -14 -15 -8 0 -23 -11 -34 -25 -11 -14 -27
-25 -35 -25 -10 0 -18 -14 -22 -42 -5 -26 -18 -53 -36 -71 -16 -16 -29 -33
-29 -38 0 -5 -4 -9 -9 -9 -12 0 -71 -59 -71 -71 0 -5 -4 -9 -9 -9 -12 0 -71
-59 -71 -71 0 -5 -4 -9 -9 -9 -12 0 -71 -59 -71 -71 0 -5 -5 -9 -10 -9 -6 0
-22 -12 -35 -27 -21 -24 -26 -26 -35 -13 -9 13 -14 11 -35 -12 -27 -31 -45
-36 -45 -12 0 14 -2 15 -17 3 -15 -13 -15 -14 0 -17 24 -5 21 -16 -14 -51 -26
-26 -38 -31 -80 -31 -46 0 -49 -2 -49 -25 0 -22 -4 -25 -40 -25 -29 0 -40 -4
-40 -15 0 -11 -11 -15 -40 -15 -29 0 -40 -4 -40 -15 0 -11 -11 -15 -40 -15
-22 0 -40 -4 -40 -10 0 -6 -33 -10 -80 -10 -64 0 -80 -3 -80 -15 0 -11 -11
-15 -40 -15 -22 0 -40 -4 -40 -10 0 -5 -18 -10 -39 -10 l-40 0 -4 52 c-3 45
-4 41 -5 -22 -1 -41 -5 -86 -9 -99 -6 -23 -7 -23 -14 -5 -4 10 -9 64 -10 119
-2 97 -3 98 -9 35 -4 -41 -7 20 -8 161 -2 171 1 229 11 237 6 5 39 15 72 22
443 86 760 399 850 840 24 117 1 110 374 108 174 -1 289 -4 256 -8z m410 -8
c20 -15 22 -58 4 -172 -5 -36 -12 -86 -16 -112 -3 -26 -10 -45 -14 -42 -5 3
-9 -9 -9 -26 0 -20 -4 -29 -11 -25 -6 4 -8 14 -4 23 3 9 8 57 11 106 9 139 11
158 22 199 9 35 8 39 -11 47 -21 8 -21 9 -2 9 11 0 25 -3 30 -7z m-1722 -202
c37 -41 37 -89 -2 -132 -52 -59 -138 -37 -172 44 -25 62 43 135 116 123 17 -3
42 -19 58 -35z m-625 -67 c2 -60 0 -73 -13 -73 -12 0 -15 13 -15 59 0 33 -4
63 -10 66 -18 11 -10 26 13 23 20 -3 22 -9 25 -75z m138 63 c21 -21 18 -34
-16 -68 -39 -38 -38 -56 3 -61 24 -3 21 -4 -15 -5 -41 -2 -48 1 -48 17 0 10
14 32 30 49 17 18 30 36 30 41 0 19 -22 23 -34 5 -18 -24 -40 -10 -23 16 14
23 52 26 73 6z m559 -1216 c-3 -5 -10 -10 -16 -10 -5 0 -9 5 -9 10 0 6 7 10
16 10 8 0 12 -4 9 -10z m-202 -47 c-13 -2 -33 -2 -45 0 -13 2 -3 4 22 4 25 0
35 -2 23 -4z"/>
<path d="M2562 2518 c-13 -13 -17 -173 -6 -202 8 -22 80 -22 88 0 11 29 7 189
-6 202 -7 7 -24 12 -38 12 -14 0 -31 -5 -38 -12z"/>
<path d="M2361 1174 c0 -11 3 -14 6 -6 3 7 2 16 -1 19 -3 4 -6 -2 -5 -13z"/>
</g>
</svg>
